<svg xmlns="http://www.w3.org/2000/svg" viewBox="0 0 1660.69 556.3"><defs><style>.cls-1{fill:#e01;}</style></defs><g id="레이어_2" data-name="레이어 2"><g id="레이어_1-2" data-name="레이어 1"><path class="cls-1" d="M1269,438c-26.69,50.7-56.89,43.88-91.31,43.88H972.21s105.14-127.79,151-177.82c74.56-80.83,127.35-124.71,127.35-175.52,0-69-66.69-126.73-160-128.51h-.21c-70.75.59-123,9.11-167.16,46.93L932,166.24h9.46C960.6,46.76,1030.82,12,1087.93,10.3c51.94,1.62,72.66,30.77,84,57.53,24.5,51.19,14.08,98.75,2.61,128.86-12.47,32.73-40.85,60.64-68.53,96.57L894.79,548.83h346L1279,438Z"/><path d="M851.46,390l8.2,118.55c-50.54,37.72-91.53,47.73-164.61,47.73-141.4,0-237-106.24-237-277.9C458,105.2,553.65.51,695.05.51c70.35,0,121.58,7.7,164.61,47l-8.2,119.32h-9.83c-19.12-127-91.26-156.27-146.58-156.27-71,0-149.59,35.42-149.59,267.89,0,236.33,80.59,267.89,149.59,267.89,55.32,0,137.7-39.26,146.58-156.27Z"/><path d="M401.83,114.45c0-74.67,1.54-90.06,37.72-97v-10H303.3v10c21.55,6.93,22.33,22.32,22.33,97V270.26H114.7V114.45c0-74.67.77-90.06,22.32-97v-10H0v10c37,6.93,38.49,27.71,38.49,97V444.69c0,73.91,2.31,83.91-38.49,94.69v10H137v-10c-21.55-7.7-22.32-16.17-22.32-94.69V287.45H325.63V444.69c0,68.52-1.55,87-22.33,94.69v10H439.55v-10c-40-10.78-37.72-31.56-37.72-94.69Z"/><path d="M1317.58,260.67l313.59,218.56H1371.36c-39.61,0-47.16-5.3-47.16-40.85h-10V549.49h346.54V479.23L1378.84,284.11l281.85-204V7.55H1314.15V149.14h9.68c4-51.55,20.62-125.24,142.24-125.24h143L1317.67,237.8"/></g></g></svg>